<?xml version="1.0" encoding="utf-8"?>
<!-- Generator: Adobe Illustrator 23.0.3, SVG Export Plug-In . SVG Version: 6.00 Build 0)  -->
<svg width="60px" height="49px" viewBox="0 0 50 39" version="1.1" id="Layer_1" xmlns="http://www.w3.org/2000/svg" xmlns:xlink="http://www.w3.org/1999/xlink" x="0px" y="0px"
	 viewBox="0 0 512 512" style="enable-background:new 0 0 512 512;" xml:space="preserve">
<style type="text/css">
	.st0{fill:#33AE77;}
	.st1{fill:#1E1E1E;}
	.st2{fill:#E4F9D2;}
	.st3{fill:#FFFFFF;}
	.st4{fill:url(#SVGID_1_);}
	.st5{fill:url(#SVGID_2_);}
	.st6{fill:url(#SVGID_3_);}
	.st7{fill:url(#SVGID_4_);}
	.st8{fill:url(#SVGID_5_);}
	.st9{fill:url(#SVGID_6_);}
	.st10{fill:url(#SVGID_7_);}
	.st11{fill:url(#SVGID_8_);}
	.st12{fill:url(#SVGID_9_);}
	.st13{fill:url(#SVGID_10_);}
	.st14{fill:url(#SVGID_11_);}
	.st15{fill:url(#SVGID_12_);}
	.st16{fill:url(#SVGID_13_);}
	.st17{fill:url(#SVGID_14_);}
	.st18{fill:url(#SVGID_15_);}
	.st19{fill:url(#SVGID_16_);}
	.st20{fill:url(#SVGID_17_);}
	.st21{fill:url(#SVGID_18_);}
	.st22{fill:url(#SVGID_19_);}
	.st23{fill:url(#SVGID_20_);}
	.st24{fill:#FEFEFE;}
	.st25{fill:#494949;}
	.st26{fill:#FF6780;}
	.st27{fill:#FFC663;}
	.st28{fill:#565656;}
	.st29{fill:#4F4F4F;}
	.st30{fill:#4D4D4D;}
	.st31{fill:#4C4C4C;}
	.st32{fill:#FFC358;}
	.st33{fill:#4A4A4A;}
	.st34{fill:#4B4B4B;}
	.st35{fill:#FBCF64;}
	.st36{fill:#E86471;}
	.st37{fill:#FFC459;}
	.st38{fill:#505050;}
	.st39{fill:#FE6770;}
	.st40{fill:#FFC55B;}
	.st41{fill:#FFC360;}
	.st42{fill:#FD818B;}
	.st43{fill:#FEC254;}
	.st44{fill:#FF6B6F;}
	.st45{fill:#FFCE69;}
	.st46{fill:#484848;}
	.st47{fill:#4E4E4E;}
	.st48{fill:#515151;}
	.st49{fill:#525252;}
	.st50{fill:#FFC34F;}
	.st51{fill:#555555;}
	.st52{fill:#545454;}
	.st53{fill:url(#SVGID_21_);}
	.st54{fill:url(#SVGID_22_);}
	.st55{fill:url(#SVGID_23_);}
	.st56{fill:url(#SVGID_24_);}
	.st57{fill:url(#SVGID_25_);}
	.st58{fill:url(#SVGID_26_);}
	.st59{fill:url(#SVGID_27_);}
	.st60{fill:url(#SVGID_28_);}
	.st61{fill:url(#SVGID_29_);}
	.st62{fill:url(#SVGID_30_);}
	.st63{fill:url(#SVGID_31_);}
	.st64{fill:url(#SVGID_32_);}
	.st65{fill:url(#SVGID_33_);}
	.st66{fill:url(#SVGID_34_);}
	.st67{fill:url(#SVGID_35_);}
	.st68{fill:url(#SVGID_36_);}
	.st69{fill:url(#SVGID_37_);}
	.st70{fill:url(#SVGID_38_);}
	.st71{fill:url(#SVGID_39_);}
	.st72{fill:url(#SVGID_40_);}
	.st73{fill:url(#SVGID_41_);}
	.st74{fill:url(#SVGID_42_);}
	.st75{fill:url(#SVGID_43_);}
	.st76{fill:url(#SVGID_44_);}
	.st77{fill:url(#SVGID_45_);}
	.st78{fill:url(#SVGID_46_);}
	.st79{fill:url(#SVGID_47_);}
	.st80{fill:url(#SVGID_48_);}
	.st81{fill:url(#SVGID_49_);}
	.st82{fill:url(#SVGID_50_);}
	.st83{fill:url(#SVGID_51_);}
	.st84{fill:url(#SVGID_52_);}
	.st85{fill:url(#SVGID_53_);}
	.st86{fill:url(#SVGID_54_);}
	.st87{fill:url(#SVGID_55_);}
	.st88{fill:url(#SVGID_56_);}
	.st89{fill:url(#SVGID_57_);}
	.st90{fill:url(#SVGID_58_);}
	.st91{fill:url(#SVGID_59_);}
	.st92{fill:url(#SVGID_60_);}
	.st93{fill:url(#SVGID_61_);}
	.st94{fill:url(#SVGID_62_);}
	.st95{fill:url(#SVGID_63_);}
	.st96{fill:url(#SVGID_64_);}
	.st97{fill:url(#SVGID_65_);}
	.st98{fill:url(#SVGID_66_);}
	.st99{fill:url(#SVGID_67_);}
	.st100{fill:url(#SVGID_68_);}
	.st101{fill:url(#SVGID_69_);}
	.st102{fill:url(#SVGID_70_);}
	.st103{fill:url(#SVGID_71_);}
	.st104{fill:url(#SVGID_72_);}
	.st105{fill:url(#SVGID_73_);}
	.st106{fill:url(#SVGID_74_);}
	.st107{fill:url(#SVGID_75_);}
	.st108{fill:url(#SVGID_76_);}
	.st109{fill:url(#SVGID_77_);}
	.st110{fill:url(#SVGID_78_);}
	.st111{fill:url(#SVGID_79_);}
	.st112{fill:url(#SVGID_80_);}
	.st113{fill:url(#SVGID_81_);}
	.st114{fill:url(#SVGID_82_);}
	.st115{fill:url(#SVGID_83_);}
	.st116{fill:url(#SVGID_84_);}
	.st117{fill:url(#SVGID_85_);}
	.st118{fill:url(#SVGID_86_);}
	.st119{fill:url(#SVGID_87_);}
	.st120{fill:url(#SVGID_88_);}
	.st121{fill:url(#SVGID_89_);}
	.st122{fill:url(#SVGID_90_);}
	.st123{fill:url(#SVGID_91_);}
	.st124{fill:url(#SVGID_92_);}
	.st125{fill:url(#SVGID_93_);}
	.st126{fill:url(#SVGID_94_);}
	.st127{fill:url(#SVGID_95_);}
	.st128{fill:url(#SVGID_96_);}
	.st129{fill:url(#SVGID_97_);}
	.st130{fill:url(#SVGID_98_);}
	.st131{fill:url(#SVGID_99_);}
	.st132{fill:url(#SVGID_100_);}
	.st133{fill:url(#SVGID_101_);}
	.st134{fill:url(#SVGID_102_);}
	.st135{fill:url(#SVGID_103_);}
	.st136{fill:url(#SVGID_104_);}
	.st137{fill:url(#SVGID_105_);}
	.st138{fill:url(#SVGID_106_);}
	.st139{fill:url(#SVGID_107_);}
	.st140{fill:url(#SVGID_108_);}
	.st141{fill:url(#SVGID_109_);}
	.st142{fill:url(#SVGID_110_);}
	.st143{fill:url(#SVGID_111_);}
	.st144{fill:url(#SVGID_112_);}
	.st145{fill:url(#SVGID_113_);}
	.st146{fill:url(#SVGID_114_);}
	.st147{fill:url(#SVGID_115_);}
	.st148{fill:url(#SVGID_116_);}
	.st149{fill:url(#SVGID_117_);}
	.st150{fill:url(#SVGID_118_);}
	.st151{fill:url(#SVGID_119_);}
	.st152{fill:url(#SVGID_120_);}
	.st153{fill:url(#SVGID_121_);}
	.st154{fill:url(#SVGID_122_);}
	.st155{fill:url(#SVGID_123_);}
	.st156{fill:url(#SVGID_124_);}
	.st157{fill:url(#SVGID_125_);}
	.st158{fill:url(#SVGID_126_);}
	.st159{fill:url(#SVGID_127_);}
	.st160{fill:url(#SVGID_128_);}
	.st161{fill:url(#SVGID_129_);}
	.st162{fill:url(#SVGID_130_);}
	.st163{fill:url(#SVGID_131_);}
	.st164{fill:url(#SVGID_132_);}
	.st165{fill:url(#SVGID_133_);}
	.st166{fill:url(#SVGID_134_);}
	.st167{fill:url(#SVGID_135_);}
	.st168{fill:url(#SVGID_136_);}
	.st169{fill:url(#SVGID_137_);}
	.st170{fill:url(#SVGID_138_);}
	.st171{fill:url(#SVGID_139_);}
	.st172{fill:url(#SVGID_140_);}
	.st173{fill:url(#SVGID_141_);}
	.st174{fill:url(#SVGID_142_);}
	.st175{fill:url(#SVGID_143_);}
	.st176{fill:url(#SVGID_144_);}
	.st177{fill:url(#SVGID_145_);}
	.st178{fill:url(#SVGID_146_);}
	.st179{fill:url(#SVGID_147_);}
	.st180{fill:url(#SVGID_148_);}
	.st181{fill:url(#SVGID_149_);}
	.st182{fill:url(#SVGID_150_);}
	.st183{fill:url(#SVGID_151_);}
</style>
<circle class="st0" cx="256" cy="258.4" r="245.1"/>
<g>
	<g>
		<path class="st3" d="M431.1,266.7c-2.6-16.2-13.2-26.7-28.5-31.4c-7.7-2.4-10.3-6.5-11.8-13.8c-6.3-30.2-19-57.4-39.2-80.9
			c-53.3-62.2-137.5-62.5-191.2-0.7c-19.6,22.6-32.6,48.7-38.8,77.9c-2,9.5-5.4,15-15.6,19c-29.3,11.6-34.9,48-10.5,66.3
			c7.4,5.6,8.7,10.7,8.3,19c-1.3,30.4,5.8,59.3,32.6,76c35.9,22.5,76.8,33.5,108.8,40.5c30.3,0.1,46.8-3.6,65.2-13.5
			c5.6-3,11.3-5.1,17.4-6.5c57.3-12.9,80.8-42.2,80.4-100.4c0-5.5-0.1-9.7,5.6-13.2C428,296.4,433.7,282.7,431.1,266.7z
			 M134.5,249.9c4.6-41.4,18.6-78.5,49.4-107.8c19.9-18.9,43.7-29.3,71.6-30.3c39,1.3,68.2,20.5,90.5,51.4
			c17,23.5,25.9,50.2,30.1,78.7c1.4,9.1-0.2,11.6-10.8,11.1c-28-1.4-45.5-12.3-47.1-42.3c-0.1-2.8-1.6-5.5-2.4-8.3
			c-1.9-6.3-2.3-14.4-11.4-14.2c-9.1,0.2-9,8.7-11.1,14.8c-4.2,12.2-4.8,27.9-13,36c-8.5,8.4-24.6,2.1-37.4,2.8
			c-33.7,2-67.1,5.6-99.7,14.7C136,258.4,133.6,258,134.5,249.9z M107.3,289.6c-13.3-17.4-10.3-28.3,8.2-36
			C117.9,266.3,110.7,276.4,107.3,289.6z M325.4,400.5c-8.1,1.6-15.5,4.3-22.8,8.2c-30.1,16-60.8,16.4-91.3,1.2
			c-9.1-4.5-18.2-7.9-28.2-10.1c-52.8-11.6-79.5-69.1-54.5-116.4c3-5.6,8.3-5.9,13.2-7.4c42.8-12.6,86.7-17.4,131.1-15.1
			c16.3,0.8,25.9-2.7,28-19.7c0.3-2.3,1.6-4.4,2.5-6.6c0.1-0.3,0.8-0.3,3.4-1.1c-1.7,29.7,19,31.6,40.9,34.5
			c35.9,4.7,35.8,5.5,41.4,41.7C396.5,358.5,373.7,391.2,325.4,400.5z M403.9,289.2c-1.8-13.3-10.3-23.2-7.2-35.8
			C415.8,261.9,418.7,273.8,403.9,289.2z"/>
		<path class="st3" d="M201.8,307.6c-4.8,0-9.6,0-14.4,0c-6.1,0.1-10.5-2.2-10.9-8.7c-0.4-6.7,3.9-9.3,10-9.4
			c10.5-0.1,21.1,0,31.6,0c5.7,0,9.6,3.3,9.6,8.5c0.1,5.9-3.7,9.6-10.2,9.6C212.4,307.6,207.1,307.6,201.8,307.6z"/>
		<path class="st3" d="M309.8,307.5c-5.7,0-11.5,0.4-17.2-0.1c-5.6-0.5-8.7-4.2-8.4-9.8c0.3-5,3.7-7.8,8.6-7.9
			c11-0.3,22-0.2,33.1-0.1c5.6,0,9.5,2.7,9.7,8.3c0.2,6.3-3.8,9.5-10,9.7C320.4,307.7,315.1,307.6,309.8,307.5
			C309.8,307.6,309.8,307.6,309.8,307.5z"/>
		<path class="st3" d="M327,348.4c-6-1.9-10.3,0.6-12,6.9c-3.5,12.6-13.5,18.1-24.7,22.1c-15.2,5.4-31,6.3-47,5.1
			c-7.5-0.6-12-2.5-11.8-11.9c0.2-11.4-6.5-19.8-16.6-25.1c-11.7-6.1-28.8-4.2-34.5,4.9c-7.7,12.2,1.9,20.7,8.6,29
			c4.9,6,11.9,9.6,19,12.7c14.8,6.4,30.3,9.2,46.4,8.9c20.5,0.3,40.2-3,58-14c9.7-6.1,16.9-14.2,20-25.5
			C333.8,355.9,333.3,350.4,327,348.4z M198.1,362c11.7-0.8,12.3-0.3,14.2,11.5C206,371.6,202.1,367.2,198.1,362z"/>
	</g>
</g>
</svg>
